<mxfile host="app.diagrams.net" modified="2023-09-25T08:34:38.443Z" agent="Mozilla/5.0 (Windows NT 10.0; Win64; x64; rv:109.0) Gecko/20100101 Firefox/117.0" etag="049U65JgopdGmascXzMx" version="21.8.2" type="github">
  <diagram name="Page-1" id="Y25eAsdVAaffGs3fT1qd">
    <mxGraphModel dx="1434" dy="726" grid="1" gridSize="10" guides="1" tooltips="1" connect="1" arrows="1" fold="1" page="1" pageScale="1" pageWidth="827" pageHeight="1169" math="0" shadow="0">
      <root>
        <mxCell id="0" />
        <mxCell id="1" parent="0" />
        <mxCell id="bn0hbPZxCAhjNmP7slUR-1" value="&lt;div&gt;Front-end&amp;nbsp;&lt;/div&gt;&lt;div&gt;site atoms&lt;/div&gt;" style="rounded=0;whiteSpace=wrap;html=1;" vertex="1" parent="1">
          <mxGeometry x="234" y="40" width="120" height="60" as="geometry" />
        </mxCell>
        <mxCell id="bn0hbPZxCAhjNmP7slUR-2" value="&lt;div&gt;Back-end&amp;nbsp;&lt;/div&gt;&lt;div&gt;site atoms&lt;/div&gt;" style="rounded=0;whiteSpace=wrap;html=1;" vertex="1" parent="1">
          <mxGeometry x="474" y="40" width="120" height="60" as="geometry" />
        </mxCell>
        <mxCell id="bn0hbPZxCAhjNmP7slUR-3" value="" style="endArrow=classic;startArrow=classic;html=1;rounded=0;entryX=0;entryY=0.5;entryDx=0;entryDy=0;exitX=1;exitY=0.5;exitDx=0;exitDy=0;" edge="1" parent="1" source="bn0hbPZxCAhjNmP7slUR-1" target="bn0hbPZxCAhjNmP7slUR-2">
          <mxGeometry width="50" height="50" relative="1" as="geometry">
            <mxPoint x="384" y="340" as="sourcePoint" />
            <mxPoint x="434" y="290" as="targetPoint" />
          </mxGeometry>
        </mxCell>
        <mxCell id="bn0hbPZxCAhjNmP7slUR-4" value="Template 1" style="rounded=0;whiteSpace=wrap;html=1;" vertex="1" parent="1">
          <mxGeometry x="220" y="160" width="120" height="60" as="geometry" />
        </mxCell>
        <mxCell id="bn0hbPZxCAhjNmP7slUR-5" value="Template 2" style="rounded=0;whiteSpace=wrap;html=1;" vertex="1" parent="1">
          <mxGeometry x="360" y="160" width="120" height="60" as="geometry" />
        </mxCell>
        <mxCell id="bn0hbPZxCAhjNmP7slUR-6" value="Template n" style="rounded=0;whiteSpace=wrap;html=1;" vertex="1" parent="1">
          <mxGeometry x="502" y="160" width="120" height="60" as="geometry" />
        </mxCell>
        <mxCell id="bn0hbPZxCAhjNmP7slUR-7" value="" style="endArrow=classic;html=1;rounded=0;entryX=0.5;entryY=0;entryDx=0;entryDy=0;" edge="1" parent="1">
          <mxGeometry width="50" height="50" relative="1" as="geometry">
            <mxPoint x="416" y="70" as="sourcePoint" />
            <mxPoint x="416" y="160" as="targetPoint" />
          </mxGeometry>
        </mxCell>
        <mxCell id="bn0hbPZxCAhjNmP7slUR-8" value="" style="endArrow=classic;html=1;rounded=0;entryX=0.567;entryY=0.033;entryDx=0;entryDy=0;entryPerimeter=0;" edge="1" parent="1" target="bn0hbPZxCAhjNmP7slUR-6">
          <mxGeometry width="50" height="50" relative="1" as="geometry">
            <mxPoint x="420" y="120" as="sourcePoint" />
            <mxPoint x="440" y="290" as="targetPoint" />
            <Array as="points">
              <mxPoint x="570" y="120" />
            </Array>
          </mxGeometry>
        </mxCell>
        <mxCell id="bn0hbPZxCAhjNmP7slUR-9" value="" style="endArrow=classic;html=1;rounded=0;entryX=0.5;entryY=0;entryDx=0;entryDy=0;" edge="1" parent="1" target="bn0hbPZxCAhjNmP7slUR-4">
          <mxGeometry width="50" height="50" relative="1" as="geometry">
            <mxPoint x="420" y="120" as="sourcePoint" />
            <mxPoint x="384" y="172" as="targetPoint" />
            <Array as="points">
              <mxPoint x="280" y="120" />
            </Array>
          </mxGeometry>
        </mxCell>
        <mxCell id="bn0hbPZxCAhjNmP7slUR-10" value="" style="endArrow=classic;html=1;rounded=0;exitX=0.5;exitY=1;exitDx=0;exitDy=0;" edge="1" parent="1">
          <mxGeometry width="50" height="50" relative="1" as="geometry">
            <mxPoint x="280" y="240" as="sourcePoint" />
            <mxPoint x="280" y="280" as="targetPoint" />
          </mxGeometry>
        </mxCell>
        <mxCell id="bn0hbPZxCAhjNmP7slUR-11" value="" style="endArrow=classic;html=1;rounded=0;exitX=0.5;exitY=1;exitDx=0;exitDy=0;" edge="1" parent="1">
          <mxGeometry width="50" height="50" relative="1" as="geometry">
            <mxPoint x="413" y="240" as="sourcePoint" />
            <mxPoint x="413" y="280" as="targetPoint" />
          </mxGeometry>
        </mxCell>
        <mxCell id="bn0hbPZxCAhjNmP7slUR-12" value="" style="endArrow=classic;html=1;rounded=0;exitX=0.5;exitY=1;exitDx=0;exitDy=0;" edge="1" parent="1">
          <mxGeometry width="50" height="50" relative="1" as="geometry">
            <mxPoint x="559.5" y="240" as="sourcePoint" />
            <mxPoint x="559.5" y="280" as="targetPoint" />
          </mxGeometry>
        </mxCell>
        <mxCell id="bn0hbPZxCAhjNmP7slUR-13" value="Site client 1" style="rounded=0;whiteSpace=wrap;html=1;" vertex="1" parent="1">
          <mxGeometry x="220" y="280" width="120" height="60" as="geometry" />
        </mxCell>
        <mxCell id="bn0hbPZxCAhjNmP7slUR-14" value="Site client 2" style="rounded=0;whiteSpace=wrap;html=1;" vertex="1" parent="1">
          <mxGeometry x="360" y="280" width="120" height="60" as="geometry" />
        </mxCell>
        <mxCell id="bn0hbPZxCAhjNmP7slUR-15" value="Site client n" style="rounded=0;whiteSpace=wrap;html=1;" vertex="1" parent="1">
          <mxGeometry x="502" y="280" width="120" height="60" as="geometry" />
        </mxCell>
        <mxCell id="bn0hbPZxCAhjNmP7slUR-16" value="" style="endArrow=none;html=1;rounded=0;" edge="1" parent="1">
          <mxGeometry width="50" height="50" relative="1" as="geometry">
            <mxPoint x="280" y="240" as="sourcePoint" />
            <mxPoint x="560" y="240" as="targetPoint" />
          </mxGeometry>
        </mxCell>
      </root>
    </mxGraphModel>
  </diagram>
</mxfile>
